<svg width="64" height="64" viewBox="0 0 64 64" fill="none" xmlns="http://www.w3.org/2000/svg">
<rect width="64" height="64" rx="24" fill="url(#paint0_linear_318_5730)"/>
<path d="M41.0115 26.7333C41.0115 27.7265 40.617 28.6791 39.9147 29.3814C39.2124 30.0837 38.2598 30.4783 37.2666 30.4783C36.2734 30.4783 35.3208 30.0837 34.6185 29.3814C33.9162 28.6791 33.5217 27.7265 33.5217 26.7333C33.5217 25.7401 33.9162 24.7875 34.6185 24.0852C35.3208 23.3829 36.2734 22.9883 37.2666 22.9883C38.2598 22.9883 39.2124 23.3829 39.9147 24.0852C40.617 24.7875 41.0115 25.7401 41.0115 26.7333ZM41.0026 37.0185C40.9203 39.3986 40.3261 41.733 39.2604 43.8628C38.2785 45.7196 36.8042 47.2702 34.9991 48.3443C33.1941 49.4185 31.1281 49.9747 29.0277 49.9521H27.5297V41.7131C27.523 40.3247 26.9685 38.995 25.9867 38.0132C25.0049 37.0314 23.6753 36.4769 22.2868 36.4702H14.0479V34.9722C14.0253 32.8718 14.5815 30.8058 15.6557 29.0008C16.7298 27.1957 18.2804 25.7214 20.1372 24.7395C22.267 23.6738 24.6014 23.0796 26.9815 22.9973C29.1638 20.1785 31.9664 17.9005 35.1717 16.3402C38.377 14.7799 41.8987 13.9792 45.4635 14.0004C46.0567 13.9967 46.6448 14.11 47.1941 14.334C47.7434 14.558 48.243 14.8882 48.6644 15.3057C49.0858 15.7232 49.4206 16.2198 49.6497 16.767C49.8788 17.3142 49.9977 17.9012 49.9994 18.4944C50.0248 22.0659 49.2263 25.5952 47.6659 28.8079C46.1055 32.0206 43.8253 34.8303 41.0026 37.0185ZM17.1697 33.4742H20.5581C21.6706 30.9965 22.9774 28.6108 24.4664 26.3393C23.4322 26.5799 22.4301 26.9419 21.4809 27.4179C20.3394 28.0207 19.3548 28.8824 18.6062 29.9341C17.8575 30.9858 17.3656 32.1982 17.1697 33.4742ZM37.6606 39.5336C35.3891 41.0225 33.0034 42.3293 30.5257 43.4418V46.8303C31.8017 46.6344 33.0141 46.1424 34.0658 45.3938C35.1175 44.6451 35.9792 43.6606 36.582 42.5191C37.0579 41.5699 37.42 40.5678 37.6606 39.5336ZM47.0035 18.4524C46.9925 18.0624 46.8299 17.6921 46.5502 17.4202C46.2704 17.1483 45.8956 16.9962 45.5055 16.9964C37.7759 17.2166 32.548 20.1781 27.5028 27.2156C26.0949 29.2427 24.8569 31.3826 23.8013 33.6135C25.4369 33.9182 26.9421 34.7109 28.1185 35.8874C29.295 37.0639 30.0877 38.569 30.3924 40.2047C32.6233 39.1491 34.7632 37.911 36.7902 36.5032C43.8218 31.4519 46.7833 26.224 47.0035 18.4524ZM23.2186 40.7829C24.0556 41.6285 24.5251 42.7703 24.5251 43.9601C24.5251 45.15 24.0556 46.2917 23.2186 47.1374C21.8599 48.4945 17.7929 49.3319 16.1062 49.63L14 50L14.37 47.8938C14.6696 46.2071 15.5055 42.1401 16.8626 40.7814C17.7191 39.9645 18.8573 39.5089 20.0409 39.5091C21.2245 39.5094 22.3625 39.9656 23.2186 40.7829ZM21.5378 43.9601C21.5384 43.7633 21.4998 43.5684 21.4245 43.3866C21.3492 43.2048 21.2385 43.0398 21.0989 42.901C20.818 42.6202 20.4371 42.4625 20.0398 42.4625C19.6426 42.4625 19.2617 42.6202 18.9808 42.901C18.4097 43.932 18.0085 45.0484 17.7929 46.2071C18.952 45.9905 20.0688 45.5889 21.1004 45.0177C21.2395 44.879 21.3498 44.7142 21.4249 44.5327C21.5 44.3511 21.5384 44.1566 21.5378 43.9601Z" fill="#3D3D3D"/>
<defs>
<linearGradient id="paint0_linear_318_5730" x1="15" y1="60.5" x2="53.5" y2="-1.5" gradientUnits="userSpaceOnUse">
<stop stop-color="#FFBD30"/>
<stop offset="1" stop-color="#FFEDCD"/>
</linearGradient>
</defs>
</svg>
