<svg width="46" height="46" viewBox="0 0 46 46" fill="none" xmlns="http://www.w3.org/2000/svg">
<g clip-path="url(#clip0_2002_766)">
<path d="M34.5147 0H11.4853C5.14216 0 0 5.14216 0 11.4853V34.5147C0 40.8578 5.14216 46 11.4853 46H34.5147C40.8578 46 46 40.8578 46 34.5147V11.4853C46 5.14216 40.8578 0 34.5147 0Z" fill="url(#paint0_linear_2002_766)"/>
<path d="M34.5147 0H11.4853C5.14216 0 0 5.14216 0 11.4853V34.5147C0 40.8578 5.14216 46 11.4853 46H34.5147C40.8578 46 46 40.8578 46 34.5147V11.4853C46 5.14216 40.8578 0 34.5147 0Z" fill="url(#paint1_radial_2002_766)"/>
<path fill-rule="evenodd" clip-rule="evenodd" d="M23.3762 40.4031C19.9259 40.4031 18.3224 39.8994 15.5353 37.8846C13.7724 40.1513 8.18978 41.9226 7.94631 38.892C7.94631 36.617 7.44261 34.6946 6.87175 32.5958C6.19177 30.0102 5.41943 27.1307 5.41943 22.9585C5.41943 12.9937 13.5961 5.49702 23.2839 5.49702C32.98 5.49702 40.5774 13.3631 40.5774 23.0508C40.6099 32.5887 32.914 40.3522 23.3762 40.4031ZM23.5189 14.1102C18.801 13.8668 15.124 17.1324 14.3097 22.2533C13.6381 26.4928 14.8302 31.6556 15.8459 31.9242C16.3328 32.0418 17.5585 31.0512 18.3224 30.2872C19.5857 31.1599 21.0567 31.684 22.5871 31.8067C27.4757 32.0419 31.6528 28.3202 31.981 23.437C32.1721 18.5434 28.4082 14.3987 23.5189 14.1186V14.1102Z" fill="white"/>
</g>
<defs>
<linearGradient id="paint0_linear_2002_766" x1="5.42096" y1="34.9847" x2="46" y2="23" gradientUnits="userSpaceOnUse">
<stop stop-color="#44CCFF"/>
<stop offset="0.662" stop-color="#5533EE"/>
<stop offset="1" stop-color="#9933DD"/>
</linearGradient>
<radialGradient id="paint1_radial_2002_766" cx="0" cy="0" r="1" gradientUnits="userSpaceOnUse" gradientTransform="translate(-1.09438 -20.2025) rotate(51.356) scale(55.8218 23)">
<stop stop-color="#0000FF"/>
<stop offset="1" stop-opacity="0"/>
</radialGradient>
<clipPath id="clip0_2002_766">
<rect width="46" height="46" rx="16" fill="white"/>
</clipPath>
</defs>
</svg>
